<svg
  id="레이어_2"
  data-name="레이어 2"
  xmlns="http://www.w3.org/2000/svg"
  viewBox="0 0 32 32"
>
  <path d="M22.08,30.26,9.89,30.2,4.75,15.1l4.84,2.39,2-6.94-2-8.3L20.66,7l2.09,6.14,1.76-2.79,3.11,9.28ZM11.32,28.21l9.55,0,4.59-8.81L24,15l-1.74,2.77L19.05,8.47,12.48,5.65l1.17,4.95-2.8,9.74L8.2,19Z"/>
  <path d="M20.08,30.22l-6.87-.15-.28-.46c-.12-.19-.37-.59-1.28-7l0-.22,3.15-9.82-.34-4.95L18.25,11l4.1,11.07ZM14.55,28.1l4,.09,1.68-6-3.46-9.35v0l-3.12,9.75C14,24.72,14.33,27,14.55,28.1Z"/>
</svg>