<svg
  id="레이어_2"
  data-name="레이어 2"
  xmlns="http://www.w3.org/2000/svg"
  viewBox="0 0 32 32"
>
  <defs>
    <style>.cls-1{fill:#8A8BA3;}.cls-2{fill:none;}</style>
  </defs>
  <path class="cls-1" d="M13.11,9.32,11.33,5H8.88L7.1,9.32,4,11.44v2.74L7.1,16.3,9,21h2.16l1.92-4.68,2.89-2v-3ZM11.49,15l-1.38,3.36L8.72,15,5.54,12.81l3.18-2.17,1.39-3.37,1.38,3.37,3.18,2.17Z"/>
  <rect class="cls-2" x="4" y="5" width="12" height="15.98"/>
  <path class="cls-1" d="M23.78,15.34,22,11H19.55l-1.78,4.32-3.1,2.12V20.2l3.1,2.12L19.7,27h2.16l1.92-4.68,2.89-2v-3ZM22.16,21l-1.38,3.36L19.39,21l-3.18-2.18,3.18-2.17,1.39-3.37,1.38,3.37,3.18,2.17Z"/>
</svg>
