<svg width="599" height="62" viewBox="0 0 629 92" fill="none" xmlns="http://www.w3.org/2000/svg">
<path d="M299.826 1.92086L0.621094 0.428223L-0.000187265 89.9731L299.205 91.4657L299.826 1.92086Z" fill="#7179F0"/>
<path d="M397.097 19.1724L392.113 74.3229C388.574 74.8842 382.862 74.9964 378.991 74.6919C378.991 74.6919 378.991 74.6918 378.993 74.5553C376.361 66.825 373.249 56.6661 371.464 47.9384C366.118 64.355 364.685 73.7818 364.179 74.4924C360.64 75.0537 354.932 74.7413 350.562 74.2981L345.465 18.8167C345.465 18.8167 353.72 17.7143 358.923 18.7373C358.923 18.7373 361.806 37.3272 361.74 45.3342C363.832 36.1984 365.398 30.1995 365.564 29.4874C369.782 28.7926 374.319 28.3872 379.181 29.6817C379.826 33.6881 379.961 36.828 381.414 44.705C382.159 36.5643 383.971 20.1327 383.982 18.8437C388.198 18.2853 393.231 18.3067 396.938 19.0352C396.938 19.0201 397.099 19.0207 397.097 19.1724Z" fill="#7179F0"/>
<path d="M416.811 19.0108C416.627 21.8597 415.943 42.5777 415.915 46.0033C415.725 49.5798 415.367 71.7241 415.344 74.5737C415.343 74.7101 415.181 74.861 415.003 74.8602C411.137 75.5562 406.78 75.4012 401.929 74.8046C401.769 74.8039 401.592 74.6667 401.594 74.3787C401.775 71.8026 402.243 55.9494 402.275 51.9478C402.308 47.9462 403.195 22.0905 403.22 18.9529C403.223 18.665 403.384 18.5292 403.562 18.53C407.762 18.2599 412.121 18.142 416.297 18.7206C416.635 18.7221 416.812 18.8592 416.811 19.0108Z" fill="#7179F0"/>
<path d="M458.756 19.2023C459.07 22.2059 458.861 25.9198 458.173 29.3436C458.172 29.48 457.832 29.6302 457.671 29.6295C456.334 29.6239 451.964 29.4688 447.754 29.451C447.539 36.167 447.295 44.1718 447.279 46.1731C447.089 49.7507 446.727 72.1744 446.706 74.7519C446.705 74.8884 446.543 75.0393 446.365 75.0386C442.493 75.1586 437.782 75.2902 433.076 74.9821C432.915 74.9815 432.916 74.845 432.917 74.6934C433.098 72.2681 433.569 56.1221 433.601 52.1194C433.622 49.5418 433.875 38.262 434.125 29.5447C429.754 29.5261 424.367 29.5032 422.869 29.4968C422.53 29.4954 422.37 29.3583 422.373 29.0702C421.377 26.4883 421.764 20.6373 422.295 18.9262C422.296 18.7897 422.637 18.6395 422.975 18.641C425.669 18.6524 441.136 18.5816 441.136 18.5816C441.136 18.5816 454.424 18.7745 458.455 18.9433C458.58 18.9135 458.757 19.0507 458.756 19.2023Z" fill="#7179F0"/>
<path d="M502.722 19.4207C502.699 22.2712 502.03 42.9959 502.002 46.4225C501.812 50.0001 501.452 72.1514 501.429 75.0019C501.428 75.1384 501.266 75.2893 501.088 75.2886C497.211 75.9848 492.841 75.8297 487.976 75.2329C487.815 75.2322 487.638 75.095 487.64 74.8069C487.822 72.23 488.288 56.6598 488.322 52.5205C486.146 52.5113 483.613 52.3641 482.096 52.4941C481.418 52.4912 479.581 52.4834 477.566 52.3384C477.502 60.1924 477.238 72.7764 477.221 74.9142C477.22 75.0507 477.058 75.2017 476.879 75.2009C473.002 75.8971 468.633 75.7421 463.767 75.1452C463.607 75.1445 463.429 75.0073 463.432 74.7192C463.613 72.1423 464.082 56.2841 464.115 52.2812C464.148 48.2784 465.037 22.4145 465.063 19.2759C465.065 18.9878 465.227 18.852 465.405 18.8528C469.617 18.5826 473.989 18.4647 478.177 19.0435C478.516 19.045 478.675 19.1821 478.674 19.3337C478.496 21.4709 478.217 33.7667 477.996 41.1956C480.511 41.2062 482.866 41.2162 482.866 41.2162C482.866 41.2162 485.561 41.0912 488.594 41.1041C488.827 32.25 489.254 21.3801 489.271 19.3787C489.273 19.0906 489.435 18.9548 489.613 18.9556C493.826 18.6854 498.198 18.5675 502.385 19.1464C502.724 19.1326 502.884 19.2698 502.722 19.4207Z" fill="#7179F0"/>
<path d="M585.229 20.8262C585.357 24.8303 585.387 42.9827 585.347 47.8353C585.149 52.4142 584.667 69.8518 584.452 74.4155C584.447 74.9917 584.105 75.2784 583.605 75.4128C580.246 75.8231 576.034 75.8052 572.326 75.3649C571.826 75.3628 571.49 74.9367 571.494 74.4969C571.524 70.7817 571.812 55.2086 572.048 48.2034C569.982 54.2 568.579 59.9111 567.886 63.9117C567.883 64.3363 567.541 64.623 567.04 64.7725C562.66 65.7548 558.791 65.3138 555.1 64.8583C554.601 64.7197 554.086 64.4294 554.09 63.9896C553.606 61.9858 552.299 55.975 550.014 47.3971C549.795 54.5388 549.659 71.1286 549.63 74.6922C549.626 75.1168 549.285 75.4035 548.784 75.553C544.569 75.9598 538.861 75.5109 536.847 75.2142C536.508 75.2128 536.171 74.9232 536.175 74.4986C536.362 71.2086 537.006 55.7735 537.039 51.7702C537.07 47.9184 538.598 24.7682 538.975 20.19C538.977 19.9019 539.14 19.6144 539.479 19.6159C543.515 19.3449 548.407 19.0775 551.76 19.3799C552.258 19.5185 552.773 19.8088 552.93 20.2493C553.928 22.6799 557.547 31.8396 561.962 46.2953C565.227 37.7259 568.849 26.8832 571.76 20.1776C571.924 19.7536 572.264 19.6034 572.783 19.4692C576.317 19.3477 581.029 19.3677 584.379 19.943C584.915 19.9605 585.232 20.3864 585.229 20.8262Z" fill="#7179F0"/>
<path d="M627.082 52.1875C627.079 52.6121 626.576 53.0496 625.897 53.1832C622.523 53.457 611.759 54.2604 603.526 53.2247C604.157 58.9437 605.624 64.9543 609.656 64.9714C614.705 64.8564 615.589 59.2803 615.765 57.4161C615.928 57.1287 616.269 56.842 616.608 56.8435C618.962 56.9899 620.812 57.574 622.144 58.2923C626.657 60.601 627.632 65.7453 624.748 69.3114C618.802 76.5794 609.727 75.8282 609.727 75.8282C586.522 75.3051 590.473 45.876 590.473 45.876C591.53 19.1487 610.524 19.8056 610.524 19.8056C610.524 19.8056 632.254 17.487 627.082 52.1875ZM610.45 31.1166C606.416 31.3876 604.508 37.8084 603.788 42.9455C610.01 43.3965 615.383 42.9948 615.383 42.9948C615.783 37.7047 615.322 30.8492 610.45 31.1166Z" fill="#7179F0"/>
</svg>
