<svg 
  id="레이어_2"
  data-name="레이어 2"
 viewBox="0 0 127 127" fill="none" xmlns="http://www.w3.org/2000/svg">
<g clipPath="url(#clip0_1541_12188)">
<path d="M63.5 2.50658C75.5633 2.50658 87.3558 6.08378 97.3861 12.7858C107.416 19.4879 115.234 29.0137 119.851 40.1588C124.467 51.3039 125.675 63.5677 123.321 75.3992C120.968 87.2308 115.159 98.0988 106.629 106.629C98.0987 115.159 87.2308 120.968 75.3992 123.321C63.5676 125.675 51.3039 124.467 40.1588 119.851C29.0137 115.234 19.4878 107.416 12.7858 97.3861C6.08375 87.3558 2.50655 75.5634 2.50655 63.5C2.52424 47.329 8.956 31.8253 20.3906 20.3907C31.8253 8.95603 47.3289 2.52427 63.5 2.50658ZM63.5 0C50.9409 0 38.6638 3.72421 28.2213 10.7017C17.7787 17.6791 9.63978 27.5965 4.83362 39.1996C0.0274524 50.8027 -1.23006 63.5704 1.2201 75.8882C3.67026 88.206 9.71805 99.5206 18.5987 108.401C27.4793 117.282 38.7939 123.33 51.1117 125.78C63.4295 128.23 76.1973 126.973 87.8004 122.166C99.4035 117.36 109.321 109.221 116.298 98.7787C123.276 88.3362 127 76.0591 127 63.5C127 46.6588 120.31 30.5073 108.401 18.5987C96.4927 6.69016 80.3412 0 63.5 0V0Z" fill="#040000"/>
<path d="M103.204 77.5536V109.797C92.1505 119.268 78.0736 124.475 63.5167 124.475C48.9598 124.475 34.8829 119.268 23.8292 109.797V77.5536H103.204ZM105.711 75.047H21.3226V110.975C32.9473 121.311 47.9614 127.02 63.5167 127.02C79.072 127.02 94.0862 121.311 105.711 110.975V75.047Z" fill="#040000"/>
<path d="M84.597 25.9013V68.0787H42.4029V25.9013H84.597ZM87.1036 23.3947H39.8964V70.5853H87.1036V23.3947Z" fill="#040000"/>
<path d="M52.2037 51.6522V56.8659H74.7963V51.6522" stroke="#040000" stroke-width="3" stroke-miterlimit="10"/>
<path d="M57.1333 37.7574H52.2037V42.687H57.1333V37.7574Z" fill="#040000"/>
<path d="M74.8047 37.7574H69.8751V42.687H74.8047V37.7574Z" fill="#040000"/>
</g>
<defs>
<clipPath id="clip0_1541_12188">
<rect width="127" height="127" fill="white"/>
</clipPath>
</defs>
</svg>
